<svg width="77" height="16" viewBox="0 0 77 16" fill="none" xmlns="http://www.w3.org/2000/svg">
<rect x="0.0447998" y="15.0694" width="15.0248" height="14.9702" rx="7.48511" transform="rotate(-90.1708 0.0447998 15.0694)" fill="#C80000"/>
<rect x="0.0447998" y="15.0694" width="15.0248" height="14.9702" rx="7.48511" transform="rotate(-90.1708 0.0447998 15.0694)" fill="#C80000"/>
<rect x="0.0447998" y="15.0694" width="15.0248" height="14.9702" rx="7.48511" transform="rotate(-90.1708 0.0447998 15.0694)" fill="#C80000"/>
<rect x="30.0448" y="15.0694" width="15.0248" height="14.9702" rx="7.48511" transform="rotate(-90.1708 30.0448 15.0694)" fill="#C80000"/>
<rect x="30.0448" y="15.0694" width="15.0248" height="14.9702" rx="7.48511" transform="rotate(-90.1708 30.0448 15.0694)" fill="#C80000"/>
<rect x="30.0448" y="15.0694" width="15.0248" height="14.9702" rx="7.48511" transform="rotate(-90.1708 30.0448 15.0694)" fill="#BBBBBB"/>
<rect x="61.0448" y="15.0694" width="15.0248" height="14.9702" rx="7.48511" transform="rotate(-90.1708 61.0448 15.0694)" fill="#C80000"/>
<rect x="61.0448" y="15.0694" width="15.0248" height="14.9702" rx="7.48511" transform="rotate(-90.1708 61.0448 15.0694)" fill="#C80000"/>
<rect x="61.0448" y="15.0694" width="15.0248" height="14.9702" rx="7.48511" transform="rotate(-90.1708 61.0448 15.0694)" fill="#BBBBBB"/>
</svg>
