<svg preserveAspectRatio="none" width="100%" height="100%" overflow="visible" style="display: block;" viewBox="0 0 45 45" fill="none" xmlns="http://www.w3.org/2000/svg">
<g id="Send Button">
<path id="Send Button_2" d="M0 22.5C0 10.0736 10.0736 0 22.5 0C34.9264 0 45 10.0736 45 22.5C45 34.9264 34.9264 45 22.5 45C10.0736 45 0 34.9264 0 22.5Z" fill="var(--fill-0, #04BE04)"/>
<path id="Vector 1" d="M15.0177 11L36.7965 21.864L37 22.274V22.684L36.7965 23.0939L15.0177 33.958C15.0177 33.958 14.6263 34.0526 14.4071 33.958C14.2004 33.8688 14 33.753 14 33.548C14 33.343 14.1251 33.1735 14.2035 32.933C15.4068 29.2439 16.646 23.2989 16.646 23.2989H28.2478L28.6549 23.0939L28.8584 22.684V22.274L28.6549 21.864H28.2478H16.646L14.2035 11.6149V11.205L14.4071 11H14.8142H15.0177Z" fill="var(--fill-0, white)" stroke="var(--stroke-0, white)"/>
</g>
</svg>
