<svg width="18" height="283" viewBox="0 0 18 283" fill="none" xmlns="http://www.w3.org/2000/svg">
<path d="M0 9C0 4.02944 4.02944 0 9 0C13.9706 0 18 4.02944 18 9C18 13.9706 13.9706 18 9 18C4.02944 18 0 13.9706 0 9Z" fill="#FF6B00"/>
<rect y="53" width="18" height="18" rx="9" fill="#FF6B00"/>
<rect y="106" width="18" height="18" rx="9" fill="#FF6B00"/>
<rect y="159" width="18" height="18" rx="9" fill="#FF6B00"/>
<rect y="212" width="18" height="18" rx="9" fill="#8A8A8A"/>
<rect y="265" width="18" height="18" rx="9" fill="#8A8A8A"/>
<line x1="9.5" y1="16" x2="9.5" y2="55" stroke="#FF6B00"/>
<line x1="8.5" y1="71" x2="8.5" y2="110" stroke="#FF6B00"/>
<line x1="8.5" y1="123" x2="8.5" y2="162" stroke="#FF6B00"/>
<line x1="8.5" y1="159" x2="8.5" y2="198" stroke="#FF6B00"/>
<line x1="8.5" y1="196" x2="8.5" y2="235" stroke="#8A8A8A"/>
<line x1="8.5" y1="229" x2="8.5" y2="268" stroke="#8A8A8A"/>
</svg>