<svg preserveAspectRatio="none" width="100%" height="100%" overflow="visible" style="display: block;" viewBox="0 0 18 283" fill="none" xmlns="http://www.w3.org/2000/svg">
<g id="Thanh l&#225;&#187;&#153; tr&#195;&#172;nh">
<path id="Rectangle 74" d="M0 9C0 4.02944 4.02944 0 9 0C13.9706 0 18 4.02944 18 9C18 13.9706 13.9706 18 9 18C4.02944 18 0 13.9706 0 9Z" fill="var(--fill-0, #FF6B00)"/>
<rect id="Rectangle 75" y="53" width="18" height="18" rx="9" fill="var(--fill-0, #FF6B00)"/>
<rect id="Rectangle 76" y="106" width="18" height="18" rx="9" fill="var(--fill-0, #FF6B00)"/>
<rect id="Rectangle 77" y="159" width="18" height="18" rx="9" fill="var(--fill-0, #FF6B00)"/>
<rect id="Rectangle 78" y="212" width="18" height="18" rx="9" fill="var(--fill-0, #8A8A8A)"/>
<rect id="Rectangle 79" y="265" width="18" height="18" rx="9" fill="var(--fill-0, #8A8A8A)"/>
<line id="Line 6" x1="9.5" y1="16" x2="9.5" y2="55" stroke="var(--stroke-0, #FF6B00)"/>
<line id="Line 7" x1="8.5" y1="71" x2="8.5" y2="110" stroke="var(--stroke-0, #FF6B00)"/>
<line id="Line 8" x1="8.5" y1="123" x2="8.5" y2="162" stroke="var(--stroke-0, #FF6B00)"/>
<line id="Line 9" x1="8.5" y1="159" x2="8.5" y2="198" stroke="var(--stroke-0, #FF6B00)"/>
<line id="Line 10" x1="8.5" y1="196" x2="8.5" y2="235" stroke="var(--stroke-0, #8A8A8A)"/>
<line id="Line 11" x1="8.5" y1="229" x2="8.5" y2="268" stroke="var(--stroke-0, #8A8A8A)"/>
</g>
</svg>
